<?xml version="1.0" standalone="no"?>
<!DOCTYPE svg PUBLIC "-//W3C//DTD SVG 20010904//EN"
 "http://www.w3.org/TR/2001/REC-SVG-20010904/DTD/svg10.dtd">
<svg version="1.0" xmlns="http://www.w3.org/2000/svg"
 width="500.000000pt" height="500.000000pt" viewBox="0 0 500.000000 500.000000"
 preserveAspectRatio="xMidYMid meet">

<g transform="translate(0.000000,500.000000) scale(0.100000,-0.100000)"
fill="#000000" stroke="none">
<path d="M870 2696 c0 -2 8 -10 18 -17 15 -13 16 -12 3 4 -13 16 -21 21 -21
13z"/>
<path d="M2194 2672 c-74 -35 -109 -104 -102 -202 8 -113 76 -172 194 -172 72
0 124 25 155 76 30 48 25 66 -16 66 -23 0 -35 -5 -35 -14 0 -8 -14 -26 -31
-40 -45 -38 -117 -37 -160 2 -27 24 -33 37 -37 85 -5 64 9 109 42 130 59 38
146 26 174 -24 13 -23 24 -29 50 -29 38 0 41 14 10 60 -38 55 -71 74 -141 77
-45 3 -73 -1 -103 -15z"/>
<path d="M3610 2675 c-7 -9 -10 -25 -6 -41 5 -20 12 -25 34 -22 21 2 28 9 30
32 5 42 -32 62 -58 31z"/>
<path d="M3417 2643 c-4 -3 -7 -14 -7 -24 0 -10 -11 -26 -25 -35 -14 -9 -25
-23 -25 -30 0 -8 11 -19 25 -24 24 -9 25 -12 25 -104 0 -114 8 -126 81 -126
49 0 50 1 47 28 -3 23 -8 27 -33 27 l-30 0 -3 87 -3 87 33 3 c25 2 34 8 36 26
3 19 -1 22 -32 22 -34 0 -36 2 -36 35 0 30 -3 35 -23 35 -13 0 -27 -3 -30 -7z"/>
<path d="M1029 2603 l-24 -28 28 24 c25 23 32 31 24 31 -2 0 -14 -12 -28 -27z"/>
<path d="M2514 2567 c-2 -7 -3 -69 -2 -138 l3 -124 31 -3 32 -3 3 80 c5 92 16
110 76 120 35 6 38 9 41 44 3 32 0 37 -18 37 -26 0 -62 -18 -73 -36 -13 -22
-27 -16 -27 11 0 21 -5 25 -30 25 -17 0 -33 -6 -36 -13z"/>
<path d="M2740 2528 c11 -30 35 -92 54 -138 l34 -85 -19 -36 c-18 -37 -35 -49
-69 -49 -23 0 -32 -13 -24 -34 9 -23 85 -21 113 2 16 13 181 368 181 389 0 2
-17 3 -37 1 l-38 -3 -34 -93 c-19 -51 -38 -89 -42 -85 -4 4 -21 46 -37 93 -29
84 -30 85 -66 88 l-36 3 20 -53z"/>
<path d="M3050 2380 l0 -200 25 -6 c42 -10 55 10 55 87 l0 69 26 -16 c15 -10
44 -17 72 -16 38 0 51 5 73 30 57 63 44 203 -22 237 -39 21 -92 19 -122 -5
-14 -11 -27 -20 -30 -20 -3 0 -7 9 -10 20 -4 15 -14 20 -36 20 l-31 0 0 -200z
m199 114 c47 -60 6 -153 -62 -140 -42 8 -57 30 -57 83 0 78 75 113 119 57z"/>
<path d="M3600 2440 l0 -140 35 0 35 0 0 140 0 140 -35 0 -35 0 0 -140z"/>
<path d="M3793 2560 c-56 -34 -79 -93 -63 -165 17 -74 90 -114 175 -95 70 16
125 100 74 113 -15 4 -29 -3 -48 -22 -14 -16 -36 -32 -47 -35 -74 -22 -121 84
-66 147 23 26 78 22 106 -8 26 -28 76 -35 76 -10 0 25 -30 65 -61 81 -40 20
-108 18 -146 -6z"/>
<path d="M4104 2562 c-59 -37 -78 -116 -48 -192 20 -50 60 -73 129 -73 92 0
135 46 135 146 0 51 -4 61 -34 94 -30 33 -39 37 -92 40 -46 3 -66 0 -90 -15z
m110 -42 c32 -12 48 -66 35 -115 -10 -35 -38 -55 -75 -55 -31 0 -64 47 -64 90
0 30 6 47 25 65 26 27 41 30 79 15z"/>
<path d="M1289 2473 c-13 -16 -12 -17 4 -4 9 7 17 15 17 17 0 8 -8 3 -21 -13z"/>
<path d="M889 2433 l-24 -28 28 24 c25 23 32 31 24 31 -2 0 -14 -12 -28 -27z"/>
<path d="M1229 2413 c-13 -16 -12 -17 4 -4 9 7 17 15 17 17 0 8 -8 3 -21 -13z"/>
</g>
</svg>
